<svg width="15" height="12" viewBox="0 0 15 12" fill="none" xmlns="http://www.w3.org/2000/svg">
<path fill-rule="evenodd" clip-rule="evenodd" d="M7.58317 4.41692L3.3211 8.67931C3.21032 8.61517 3.10537 8.57435 3.01208 8.56852C2.20165 8.51021 1.8868 8.60351 1.44369 8.2245C0.965587 7.81633 1.00057 6.72595 1.00057 5.92712C1.00057 5.12829 0.965587 4.03791 1.44369 3.62974C1.8868 3.25074 2.20165 3.34986 3.01208 3.28572C3.82252 3.22158 5.53667 0.749278 6.86019 1.53062C7.39659 1.96794 7.54235 2.78426 7.58317 4.41692Z" stroke="white" stroke-width="0.9375" stroke-linecap="round" stroke-linejoin="round"/>
<path d="M7.58314 7.19826C7.55982 8.99418 7.41988 9.86881 6.86016 10.3236C6.24796 10.6851 5.55414 10.3528 4.90112 9.88047" stroke="white" stroke-width="0.9375" stroke-linecap="round" stroke-linejoin="round"/>
<path d="M1.00134 11L3.32187 8.6793L7.58394 4.41691L11.0006 1" stroke="white" stroke-width="0.9375" stroke-linecap="round" stroke-linejoin="round"/>
</svg>
