<svg width="16" height="16" viewBox="0 0 16 16" fill="none" xmlns="http://www.w3.org/2000/svg">
<path fill-rule="evenodd" clip-rule="evenodd" d="M12.95 12.9489C10.8106 15.0884 7.64284 15.5507 5.05049 14.3518C4.66779 14.1977 4.35404 14.0732 4.05576 14.0732C3.22494 14.0781 2.19082 14.8837 1.65335 14.3469C1.11589 13.8094 1.92208 12.7744 1.92208 11.9386C1.92208 11.6403 1.80249 11.3321 1.64843 10.9487C0.448982 8.35674 0.911876 5.18788 3.05118 3.04904C5.78212 0.317102 10.219 0.317103 12.95 3.04834C15.6858 5.7845 15.6809 10.2177 12.95 12.9489Z" stroke="white" stroke-linecap="round" stroke-linejoin="round"/>
<path d="M10.7577 8.28915H10.764" stroke="white" stroke-linecap="round" stroke-linejoin="round"/>
<path d="M7.95128 8.28915H7.95758" stroke="white" stroke-linecap="round" stroke-linejoin="round"/>
<path d="M5.1449 8.28915H5.1512" stroke="white" stroke-linecap="round" stroke-linejoin="round"/>
</svg>
