<svg width="16" height="15" viewBox="0 0 16 15" fill="none" xmlns="http://www.w3.org/2000/svg">
<path d="M4.88889 0.5H2.55556C2.143 0.5 1.74733 0.663888 1.45561 0.955612C1.16389 1.24733 1 1.643 1 2.05556V4.38889M15 4.38889V2.05556C15 1.643 14.8361 1.24733 14.5444 0.955612C14.2527 0.663888 13.857 0.5 13.4444 0.5H11.1111M11.1111 14.5H13.4444C13.857 14.5 14.2527 14.3361 14.5444 14.0444C14.8361 13.7527 15 13.357 15 12.9444V10.6111M1 10.6111V12.9444C1 13.357 1.16389 13.7527 1.45561 14.0444C1.74733 14.3361 2.143 14.5 2.55556 14.5H4.88889" stroke="white" stroke-linecap="round" stroke-linejoin="round"/>
</svg>
