<svg width="16" height="13" viewBox="0 0 16 13" fill="none" xmlns="http://www.w3.org/2000/svg">
<path fill-rule="evenodd" clip-rule="evenodd" d="M1.00015 6.5001C0.99809 7.40616 0.957659 8.64199 1.51821 9.10394C2.04107 9.53483 2.40906 9.42381 3.36363 9.49386C4.3189 9.56457 6.33496 12.3726 7.88914 11.4844C8.69091 10.8539 8.75052 9.53219 8.75052 6.5001C8.75052 3.468 8.69091 2.14626 7.88914 1.51578C6.33496 0.626905 4.3189 3.43562 3.36363 3.50634C2.40906 3.57639 2.04107 3.46536 1.51821 3.89625C0.957659 4.3582 0.99809 5.59404 1.00015 6.5001Z" stroke="white" stroke-linecap="round" stroke-linejoin="round"/>
<path d="M13.5872 2.00824C15.4662 4.7132 15.4723 8.28126 13.5872 10.9915" stroke="white" stroke-linecap="round" stroke-linejoin="round"/>
<path d="M11.7429 3.7843C12.7091 5.47218 12.7091 7.53344 11.7429 9.21603" stroke="white" stroke-linecap="round" stroke-linejoin="round"/>
</svg>
