<svg width="15" height="15" viewBox="0 0 15 15" fill="none" xmlns="http://www.w3.org/2000/svg">
<path d="M7.5386 0.5C4.76332 0.5 2.53739 2.10986 1.38979 4.22651L1.05684 3.04613C0.976106 2.75991 0.678635 2.59333 0.392419 2.67407C0.106203 2.7548 -0.0603733 3.05227 0.0203597 3.33849L0.779781 6.0308C0.857087 6.30486 1.13442 6.47136 1.41265 6.41073L3.884 5.87227C4.17457 5.80896 4.3588 5.52209 4.29549 5.23152C4.23218 4.94096 3.9453 4.75673 3.65474 4.82004L2.13187 5.15184C3.03261 3.14378 5.03183 1.57692 7.5386 1.57692C9.32376 1.57692 10.7939 2.08604 11.8138 3.04595C12.8282 4.00069 13.4617 5.46192 13.4617 7.5C13.4617 9.00065 12.9609 10.4837 11.9823 11.5846C11.0126 12.6755 9.54633 13.4231 7.5386 13.4231C4.09534 13.4231 1.61552 10.4628 1.61552 7.5C1.61552 7.20262 1.37444 6.96154 1.07706 6.96154C0.779677 6.96154 0.538599 7.20262 0.538599 7.5C0.538599 10.9987 3.4434 14.5 7.5386 14.5C9.83856 14.5 11.6031 13.6322 12.7872 12.3C13.9625 10.9778 14.5386 9.23011 14.5386 7.5C14.5386 5.23039 13.8259 3.46085 12.5519 2.26174C11.2833 1.06781 9.52267 0.5 7.5386 0.5Z" fill="white"/>
<path fill-rule="evenodd" clip-rule="evenodd" d="M9.61932 7.50429C9.61932 8.23512 9.50478 8.77609 9.27569 9.12719C9.04842 9.47829 8.69751 9.65385 8.22297 9.65385C7.76297 9.65385 7.4157 9.47257 7.18116 9.11002C6.94843 8.74747 6.83207 8.21222 6.83207 7.50429C6.83207 6.76583 6.94571 6.222 7.17298 5.87281C7.40025 5.52171 7.75025 5.34615 8.22297 5.34615C8.68297 5.34615 9.03024 5.52934 9.26478 5.89571C9.50114 6.26207 9.61932 6.79827 9.61932 7.50429ZM7.66934 7.50429C7.66934 8.01759 7.71115 8.38587 7.79479 8.60912C7.88024 8.83047 8.02297 8.94114 8.22297 8.94114C8.41933 8.94114 8.56115 8.82856 8.64842 8.6034C8.73569 8.37823 8.77933 8.01187 8.77933 7.50429C8.77933 6.991 8.73478 6.62272 8.64569 6.39946C8.55842 6.1743 8.41751 6.06172 8.22297 6.06172C8.02479 6.06172 7.88297 6.1743 7.79752 6.39946C7.71206 6.62272 7.66934 6.991 7.66934 7.50429Z" fill="white"/>
<path d="M5.74663 9.5966H4.9039V7.17513L4.91209 6.77728L4.92572 6.34222C4.78572 6.48915 4.68845 6.58551 4.63391 6.63131L4.17573 7.01771L3.76937 6.48533L5.0539 5.41199H5.74663V9.5966Z" fill="white"/>
<path d="M12.0575 9.39624C12.2757 9.22451 12.3848 8.97454 12.3848 8.64633C12.3848 8.48795 12.3584 8.35152 12.3057 8.23703C12.2529 8.12254 12.1711 8.02141 12.0602 7.93363C11.9493 7.84586 11.7748 7.7514 11.5366 7.65027C11.2693 7.53769 11.0957 7.45277 11.0157 7.39553C10.9375 7.33828 10.8984 7.27054 10.8984 7.19231C10.8984 7.05301 11.0211 6.98336 11.2666 6.98336C11.4048 6.98336 11.5402 7.00531 11.6729 7.04919C11.8057 7.09308 11.9484 7.14937 12.1011 7.21807L12.352 6.58837C12.0048 6.42045 11.6475 6.33649 11.2802 6.33649C10.8948 6.33649 10.5966 6.41473 10.3857 6.5712C10.1766 6.72576 10.072 6.9452 10.072 7.22952C10.072 7.39553 10.0966 7.53578 10.1457 7.65027C10.1966 7.76285 10.2766 7.86303 10.3857 7.95081C10.4966 8.03858 10.6693 8.13399 10.9039 8.23703C11.0675 8.30954 11.1984 8.37346 11.2966 8.4288C11.3948 8.48223 11.4639 8.53089 11.5039 8.57478C11.5439 8.61676 11.5639 8.67209 11.5639 8.74079C11.5639 8.92397 11.4129 9.01556 11.1111 9.01556C10.9639 9.01556 10.7929 8.9898 10.5984 8.93828C10.4057 8.88676 10.232 8.82284 10.0775 8.74651V9.4678C10.2139 9.52886 10.3602 9.57466 10.5166 9.60519C10.6729 9.63763 10.862 9.65385 11.0839 9.65385C11.5166 9.65385 11.8411 9.56798 12.0575 9.39624Z" fill="white"/>
</svg>
