<svg width="15" height="15" viewBox="0 0 15 15" fill="none" xmlns="http://www.w3.org/2000/svg">
<path fill-rule="evenodd" clip-rule="evenodd" d="M13.8115 4.39333L13.3581 3.60667C12.9746 2.94103 12.1247 2.7114 11.4581 3.09333V3.09333C11.1408 3.28024 10.7622 3.33327 10.4058 3.24073C10.0494 3.14818 9.7444 2.91766 9.55813 2.6C9.43829 2.39809 9.3739 2.16812 9.37146 1.93333V1.93333C9.38227 1.55692 9.24026 1.19215 8.97778 0.922137C8.7153 0.65212 8.3547 0.499845 7.97813 0.5H7.06479C6.69587 0.499996 6.34215 0.647005 6.08191 0.9085C5.82166 1.16999 5.67635 1.52441 5.67813 1.89333V1.89333C5.66719 2.65503 5.04657 3.26675 4.28479 3.26667C4.05001 3.26423 3.82004 3.19984 3.61813 3.08V3.08C2.95158 2.69806 2.10165 2.92769 1.71813 3.59333L1.23146 4.39333C0.848404 5.05814 1.07491 5.90753 1.73813 6.29333V6.29333C2.16923 6.54223 2.4348 7.00221 2.4348 7.5C2.4348 7.99779 2.16923 8.45777 1.73813 8.70667V8.70667C1.07575 9.08986 0.848999 9.9372 1.23146 10.6V10.6L1.69146 11.3933C1.87116 11.7176 2.17265 11.9568 2.52924 12.0582C2.88582 12.1595 3.26809 12.1146 3.59146 11.9333V11.9333C3.90935 11.7478 4.28816 11.697 4.6437 11.7922C4.99923 11.8873 5.30203 12.1205 5.48479 12.44C5.60463 12.6419 5.66902 12.8719 5.67146 13.1067V13.1067C5.67146 13.8762 6.29528 14.5 7.06479 14.5H7.97813C8.74505 14.5 9.36779 13.8802 9.37146 13.1133V13.1133C9.36968 12.7433 9.5159 12.3878 9.77759 12.1261C10.0393 11.8644 10.3947 11.7182 10.7648 11.72C10.999 11.7263 11.228 11.7904 11.4315 11.9067V11.9067C12.0963 12.2897 12.9457 12.0632 13.3315 11.4V11.4L13.8115 10.6C13.9973 10.2811 14.0482 9.90128 13.9532 9.54466C13.8581 9.18804 13.6247 8.88405 13.3048 8.7V8.7C12.9849 8.51595 12.7515 8.21196 12.6564 7.85534C12.5613 7.49872 12.6123 7.11891 12.7981 6.8C12.9189 6.58906 13.0938 6.41416 13.3048 6.29333V6.29333C13.964 5.90774 14.19 5.06331 13.8115 4.4V4.4V4.39333Z" stroke="white" stroke-linecap="round" stroke-linejoin="round"/>
<circle cx="7.52474" cy="7.50002" r="1.92" stroke="white" stroke-linecap="round" stroke-linejoin="round"/>
</svg>
