<svg width="20" height="17" viewBox="0 0 20 17" fill="none" xmlns="http://www.w3.org/2000/svg">
<path fill-rule="evenodd" clip-rule="evenodd" d="M13.0509 0.555629C14.0412 0.944661 14.3442 2.2995 14.7492 2.73498C15.1541 3.17047 15.7336 3.31853 16.0543 3.31853C17.7584 3.31853 19.14 4.68208 19.14 6.36305V11.9711C19.14 14.2259 17.2868 16.055 15.0021 16.055H5.13789C2.85224 16.055 1 14.2259 1 11.9711V6.36305C1 4.68208 2.38158 3.31853 4.08577 3.31853C4.40542 3.31853 4.98492 3.17047 5.39087 2.73498C5.79583 2.2995 6.09784 0.944661 7.08819 0.555629C8.07952 0.166597 12.0605 0.166597 13.0509 0.555629Z" stroke="white" stroke-width="0.5" stroke-linecap="round" stroke-linejoin="round"/>
<path d="M15.4584 5.82872H15.4672" stroke="white" stroke-width="0.5" stroke-linecap="round" stroke-linejoin="round"/>
<path fill-rule="evenodd" clip-rule="evenodd" d="M13.1869 9.33957C13.1869 7.64022 11.7916 6.26312 10.0698 6.26312C8.34795 6.26312 6.95264 7.64022 6.95264 9.33957C6.95264 11.0389 8.34795 12.416 10.0698 12.416C11.7916 12.416 13.1869 11.0389 13.1869 9.33957Z" stroke="white" stroke-width="0.5" stroke-linecap="round" stroke-linejoin="round"/>
</svg>
