<svg width="14" height="12" viewBox="0 0 14 12" fill="none" xmlns="http://www.w3.org/2000/svg">
<path d="M5.54775 7.07447C5.17478 6.70215 4.94775 6.1962 4.94775 5.62863C4.94775 4.49155 5.86365 3.57501 7.00008 3.57501C7.56246 3.57501 8.08008 3.80269 8.44656 4.17501" stroke="#F31B4C" stroke-linecap="round" stroke-linejoin="round"/>
<path d="M9.01403 5.99274C8.86354 6.82949 8.20452 7.48982 7.36841 7.6416" stroke="#F31B4C" stroke-linecap="round" stroke-linejoin="round"/>
<path d="M3.53297 9.08892C2.50357 8.2807 1.63178 7.10016 1 5.62838C1.63827 4.15011 2.51589 2.96308 3.55178 2.14838C4.58119 1.33367 5.76886 0.891296 7 0.891296C8.23827 0.891296 9.4253 1.34016 10.4612 2.1607" stroke="#F31B4C" stroke-linecap="round" stroke-linejoin="round"/>
<path d="M11.8311 3.5874C12.2773 4.18027 12.6698 4.86459 12.9999 5.62805C11.724 8.58394 9.46933 10.3645 6.99992 10.3645C6.44014 10.3645 5.88814 10.2737 5.35754 10.0966" stroke="#F31B4C" stroke-linecap="round" stroke-linejoin="round"/>
<path d="M12.1161 0.512024L1.88428 10.7438" stroke="#F31B4C" stroke-linecap="round" stroke-linejoin="round"/>
</svg>
