<svg width="15" height="15" viewBox="0 0 15 15" fill="none" xmlns="http://www.w3.org/2000/svg">
<path d="M7.49937 0.539185C10.2951 0.539185 12.5309 2.18251 13.6585 4.32909L14.0174 3.05705C14.0923 2.79127 14.3685 2.6366 14.6343 2.71156C14.9001 2.78653 15.0548 3.06275 14.9798 3.32852L14.2205 6.02052C14.1487 6.27501 13.8912 6.42962 13.6328 6.37332L11.1617 5.83492C10.8919 5.77614 10.7208 5.50975 10.7796 5.23994C10.8384 4.97013 11.1048 4.79906 11.3746 4.85785L12.9711 5.20569C12.0801 3.15252 10.0516 1.53918 7.49937 1.53918C5.70733 1.53918 4.22701 2.05034 3.19836 3.01848C2.17481 3.98183 1.53857 5.45388 1.53857 7.49998C1.53857 9.00865 2.04203 10.501 3.02748 11.6096C4.00475 12.709 5.48145 13.4608 7.49937 13.4608C10.9655 13.4608 13.4602 10.4816 13.4602 7.49998C13.4602 7.22384 13.684 6.99998 13.9602 6.99998C14.2363 6.99998 14.4602 7.22384 14.4602 7.49998C14.4602 10.9792 11.5709 14.4608 7.49937 14.4608C5.2101 14.4608 3.4564 13.5973 2.28007 12.274C1.11192 10.9598 0.538574 9.22172 0.538574 7.49998C0.538574 5.23889 1.24834 3.48054 2.51299 2.29028C3.77253 1.10483 5.52262 0.539185 7.49937 0.539185Z" fill="white"/>
<path fill-rule="evenodd" clip-rule="evenodd" d="M8.83326 7.47631C8.83326 8.20753 8.71866 8.74879 8.48945 9.10008C8.26205 9.45137 7.91096 9.62702 7.43616 9.62702C6.97592 9.62702 6.62847 9.44564 6.3938 9.0829C6.16095 8.72015 6.04452 8.18462 6.04452 7.47631C6.04452 6.73746 6.15822 6.19334 6.38561 5.84395C6.613 5.49266 6.96319 5.31702 7.43616 5.31702C7.89641 5.31702 8.24386 5.5003 8.47853 5.86686C8.71502 6.23343 8.83326 6.76991 8.83326 7.47631ZM6.88224 7.47631C6.88224 7.98988 6.92408 8.35836 7.00776 8.58173C7.09326 8.8032 7.23606 8.91393 7.43616 8.91393C7.63263 8.91393 7.77452 8.80129 7.86184 8.57601C7.94916 8.35072 7.99282 7.98416 7.99282 7.47631C7.99282 6.96274 7.94825 6.59427 7.85911 6.37089C7.7718 6.14561 7.63081 6.03296 7.43616 6.03296C7.23788 6.03296 7.09598 6.14561 7.01048 6.37089C6.92498 6.59427 6.88224 6.96274 6.88224 7.47631Z" fill="white"/>
<path d="M4.95849 9.56974H4.11532V7.14698L4.12351 6.74891L4.13715 6.31361C3.99708 6.46062 3.89975 6.55704 3.84518 6.60286L3.38676 6.98947L2.98018 6.4568L4.2654 5.38288H4.95849V9.56974Z" fill="white"/>
<path d="M11.2727 9.36928C11.491 9.19745 11.6002 8.94734 11.6002 8.61896C11.6002 8.4605 11.5738 8.32399 11.521 8.20944C11.4683 8.09489 11.3864 7.9937 11.2755 7.90588C11.1645 7.81806 10.9899 7.72355 10.7515 7.62237C10.4841 7.50972 10.3104 7.42476 10.2304 7.36749C10.1521 7.31021 10.113 7.24244 10.113 7.16416C10.113 7.02479 10.2358 6.9551 10.4814 6.9551C10.6197 6.9551 10.7552 6.97706 10.888 7.02097C11.0208 7.06488 11.1636 7.1212 11.3164 7.18993L11.5674 6.5599C11.22 6.39189 10.8625 6.30789 10.495 6.30789C10.1094 6.30789 9.81105 6.38616 9.60003 6.54272C9.39083 6.69736 9.28623 6.91692 9.28623 7.20139C9.28623 7.36749 9.31079 7.50781 9.35991 7.62237C9.41084 7.73501 9.49088 7.83524 9.60003 7.92306C9.711 8.01089 9.88382 8.10635 10.1185 8.20944C10.2822 8.28199 10.4132 8.34595 10.5114 8.40132C10.6097 8.45477 10.6788 8.50346 10.7188 8.54737C10.7588 8.58937 10.7788 8.64474 10.7788 8.71347C10.7788 8.89675 10.6278 8.98839 10.3259 8.98839C10.1785 8.98839 10.0075 8.96262 9.81287 8.91107C9.62004 8.85952 9.44631 8.79556 9.29169 8.7192V9.44087C9.42812 9.50196 9.57456 9.54778 9.73101 9.57833C9.88746 9.61079 10.0766 9.62702 10.2986 9.62702C10.7315 9.62702 11.0563 9.5411 11.2727 9.36928Z" fill="white"/>
</svg>
