<svg width="110" height="33" xmlns="http://www.w3.org/2000/svg"><g fill="none"><path d="M26.19 16.435a9.049 9.049 0 01-2.608 6.364 8.856 8.856 0 01-6.295 2.637H6.999L5.735 33H0L4.268 7.437H17.29c4.915.002 8.898 4.03 8.898 8.998z" fill="#DB2C3B"/><path d="M34 16.269c-.001 8.984-7.237 16.266-16.162 16.266H7.886l.321-1.91.644-3.839h8.175c.19.011.381.016.572.016h.096c5.732-.085 10.326-4.801 10.3-10.572-.026-5.77-4.663-10.444-10.396-10.477H5.054L6.018 0h11.82C26.764 0 34 7.284 34 16.269zM41.306 28H35l3.428-20h7.243c5.02 0 7.734 2.287 7.734 6.044 0 5.151-3.402 7.428-9.077 7.428H42.46L41.306 28zm3.002-11.439c1.754 0 2.797-.594 2.797-1.865 0-1.212-.85-1.58-2.25-1.58h-.971l-.6 3.435 1.024.01zM57.199 8h7.823c4.242 0 9.088 2.346 9.088 8.532C74.11 23.566 69.2 28 62.577 28h-8.712l3.334-20zm3.632 14.377h2.003c3.2 0 4.869-2.541 4.869-5.152 0-2.033-1.12-3.699-3.71-3.699h-1.666l-1.496 8.851zM87.301 28l-.442-3.053h-6.327L78.906 28H71.81L83.77 8h6.715l3.41 19.997L87.3 28zM85.76 14.81l-2.777 5.15h3.345l-.568-5.15zm9.976 13.173L99.253 8h6.556l-2.532 14.41H110l-.985 5.59z" fill="#FFF"/></g></svg>